<svg width="803" height="107" viewBox="0 0 803 107" fill="none" xmlns="http://www.w3.org/2000/svg">
<path d="M44.32 106.304C35.584 106.304 27.376 105.392 19.696 103.568C12.016 101.648 5.68 99.152 0.688004 96.08L13.792 71.024C24.64 77.264 35.968 80.384 47.776 80.384C52.096 80.384 55.408 79.856 57.712 78.8C60.016 77.744 61.168 76.304 61.168 74.48C61.168 72.752 59.968 71.36 57.568 70.304C55.264 69.248 51.568 68.096 46.48 66.848C39.76 65.12 34.192 63.392 29.776 61.664C25.36 59.84 21.472 57.104 18.112 53.456C14.848 49.712 13.216 44.816 13.216 38.768C13.216 31.184 15.232 24.56 19.264 18.896C23.392 13.136 29.296 8.72 36.976 5.64799C44.656 2.48 53.728 0.895996 64.192 0.895996C71.68 0.895996 78.64 1.66399 85.072 3.19999C91.6 4.63999 97.216 6.75199 101.92 9.536L89.68 34.304C85.744 31.808 81.376 29.936 76.576 28.688C71.872 27.44 67.024 26.816 62.032 26.816C57.328 26.816 53.68 27.488 51.088 28.832C48.496 30.176 47.2 31.76 47.2 33.584C47.2 35.408 48.352 36.848 50.656 37.904C53.056 38.96 56.944 40.112 62.32 41.36C68.848 42.896 74.32 44.528 78.736 46.256C83.248 47.984 87.136 50.672 90.4 54.32C93.664 57.968 95.296 62.768 95.296 68.72C95.296 76.208 93.232 82.784 89.104 88.448C84.976 94.112 79.072 98.528 71.392 101.696C63.712 104.768 54.688 106.304 44.32 106.304Z"/>
<path d="M156.241 106.304C145.969 106.304 136.897 104.432 129.025 100.688C121.249 96.848 115.201 91.52 110.881 84.704C106.657 77.888 104.545 70.064 104.545 61.232C104.545 49.52 107.233 39.104 112.609 29.984C118.081 20.864 125.617 13.76 135.217 8.67199C144.913 3.48799 155.905 0.895996 168.193 0.895996C177.889 0.895996 186.481 2.672 193.969 6.224C201.457 9.68 207.025 14.624 210.673 21.056L186.193 40.208C181.681 32.336 174.961 28.4 166.033 28.4C160.753 28.4 156.049 29.696 151.921 32.288C147.793 34.88 144.577 38.528 142.273 43.232C139.969 47.84 138.817 53.12 138.817 59.072C138.817 65.024 140.689 69.824 144.433 73.472C148.273 77.024 153.313 78.8 159.553 78.8C168.097 78.8 175.585 74.912 182.017 67.136L202.033 86.288C196.177 93.488 189.505 98.624 182.017 101.696C174.625 104.768 166.033 106.304 156.241 106.304Z"/>
<path d="M255.511 106.304C246.487 106.304 238.663 104.816 232.039 101.84C225.511 98.768 220.471 94.448 216.919 88.88C213.463 83.312 211.735 76.784 211.735 69.296C211.735 66.224 212.119 62.672 212.887 58.64L223.975 3.19999H257.959L247.015 58.064C246.439 60.752 246.151 63.2 246.151 65.408C246.151 69.92 247.303 73.28 249.607 75.488C251.911 77.696 255.271 78.8 259.687 78.8C264.679 78.8 268.567 77.216 271.351 74.048C274.135 70.88 276.295 65.552 277.831 58.064L288.775 3.19999H322.183L310.807 60.08C307.735 75.344 301.591 86.864 292.375 94.64C283.159 102.416 270.871 106.304 255.511 106.304Z"/>
<path d="M458.433 3.19999L438.561 104H407.601L416.529 58.064L388.161 94.928H373.184L357.632 58.64L348.561 104H317.601L337.761 3.19999H365.408L387.296 56.768L429.489 3.19999H458.433Z"/>
<path d="M546.719 52.16C551.039 54.08 554.351 56.72 556.655 60.08C559.055 63.344 560.255 67.28 560.255 71.888C560.255 82.544 555.839 90.56 547.007 95.936C538.271 101.312 526.991 104 513.167 104H454.991L475.151 3.19999H528.575C540.383 3.19999 549.359 5.31199 555.503 9.536C561.647 13.664 564.719 19.568 564.719 27.248C564.719 32.912 563.135 37.904 559.967 42.224C556.799 46.448 552.383 49.76 546.719 52.16ZM503.807 26.96L500.783 41.936H518.063C525.551 41.936 529.295 39.008 529.295 33.152C529.295 31.136 528.527 29.6 526.991 28.544C525.455 27.488 523.247 26.96 520.367 26.96H503.807ZM515.039 80.24C518.495 80.24 521.279 79.472 523.391 77.936C525.503 76.304 526.559 74 526.559 71.024C526.559 68.912 525.743 67.28 524.111 66.128C522.575 64.976 520.607 64.4 518.207 64.4H496.319L493.151 80.24H515.039Z"/>
<path d="M623.102 106.304C612.83 106.304 603.806 104.432 596.03 100.688C588.35 96.848 582.398 91.52 578.174 84.704C574.046 77.888 571.982 70.064 571.982 61.232C571.982 49.52 574.67 39.104 580.046 29.984C585.518 20.768 593.054 13.616 602.654 8.52799C612.35 3.43999 623.294 0.895996 635.486 0.895996C645.758 0.895996 654.734 2.81599 662.414 6.65599C670.19 10.4 676.142 15.68 680.27 22.496C684.494 29.312 686.606 37.136 686.606 45.968C686.606 57.68 683.87 68.144 678.398 77.36C673.022 86.48 665.486 93.584 655.79 98.672C646.19 103.76 635.294 106.304 623.102 106.304ZM625.982 78.8C631.358 78.8 636.014 77.408 639.95 74.624C643.982 71.84 647.054 68.096 649.166 63.392C651.278 58.688 652.334 53.552 652.334 47.984C652.334 42.032 650.558 37.28 647.006 33.728C643.55 30.176 638.75 28.4 632.606 28.4C627.23 28.4 622.526 29.792 618.494 32.576C614.558 35.36 611.534 39.104 609.422 43.808C607.31 48.512 606.254 53.648 606.254 59.216C606.254 65.168 607.982 69.92 611.438 73.472C614.99 77.024 619.838 78.8 625.982 78.8Z"/>
<path d="M751.173 67.424L743.973 104H709.989L717.333 66.992L692.133 3.19999H726.261L739.941 38.048L768.021 3.19999H802.149L751.173 67.424Z"/>
</svg>
